<svg xmlns="http://www.w3.org/2000/svg" width="36" height="36" viewBox="0 0 36 36">
    <defs>
        <style>
            .cls-1{fill:#fff}
        </style>
    </defs>
    <path id="facebook-square-brands" d="M32.143 32H3.857A3.857 3.857 0 0 0 0 35.857v28.286A3.857 3.857 0 0 0 3.857 68h11.029V55.761H9.824V50h5.062v-4.391c0-4.994 2.973-7.753 7.527-7.753a30.67 30.67 0 0 1 4.461.389v4.9h-2.512c-2.476 0-3.248 1.536-3.248 3.112V50h5.527l-.884 5.761h-4.643V68h11.029A3.857 3.857 0 0 0 36 64.143V35.857A3.857 3.857 0 0 0 32.143 32z" class="cls-1" transform="translate(0 -32)"/>
</svg>
