<svg xmlns="http://www.w3.org/2000/svg" width="36" height="36" viewBox="0 0 36 36">
    <defs>
        <style>
            .cls-1{fill:#fff}
        </style>
    </defs>
    <path id="twitter-square-brands" d="M32.143 32H3.857A3.858 3.858 0 0 0 0 35.857v28.286A3.858 3.858 0 0 0 3.857 68h28.286A3.858 3.858 0 0 0 36 64.143V35.857A3.858 3.858 0 0 0 32.143 32zm-3.93 12.761c.016.225.016.458.016.683a14.892 14.892 0 0 1-14.994 14.994 14.926 14.926 0 0 1-8.092-2.362 11.1 11.1 0 0 0 1.27.064 10.567 10.567 0 0 0 6.541-2.25 5.277 5.277 0 0 1-4.926-3.656 5.68 5.68 0 0 0 2.379-.1 5.271 5.271 0 0 1-4.219-5.175V46.9a5.267 5.267 0 0 0 2.379.667 5.259 5.259 0 0 1-2.347-4.389 5.2 5.2 0 0 1 .715-2.66A14.964 14.964 0 0 0 17.8 46.03a5.281 5.281 0 0 1 8.992-4.813 10.327 10.327 0 0 0 3.343-1.27 5.257 5.257 0 0 1-2.314 2.9 10.488 10.488 0 0 0 3.038-.82 11.093 11.093 0 0 1-2.646 2.734z" class="cls-1" transform="translate(0 -32)"/>
</svg>
